<?xml version="1.0" encoding="UTF-8"?>
<svg xmlns="http://www.w3.org/2000/svg" xmlns:xlink="http://www.w3.org/1999/xlink" width="48px" height="48px" viewBox="0 0 48 48" version="1.1">
<g id="surface1">
<path style=" stroke:none;fill-rule:nonzero;fill:rgb(100%,100%,100%);fill-opacity:1;" d="M 33.515625 7.929688 C 33.46875 7.972656 32.992188 8.207031 32.085938 8.636719 C 31.359375 8.976562 31 9.285156 31 9.554688 L 31 27.359375 C 31 28.671875 31.214844 29.667969 31.632812 30.355469 C 31.871094 30.71875 32.214844 31.03125 32.683594 31.296875 C 32.824219 31.332031 32.894531 31.398438 32.894531 31.484375 C 32.894531 31.558594 32.777344 31.617188 32.550781 31.667969 C 32.3125 31.71875 32.011719 31.871094 31.632812 32.125 C 31.035156 32.546875 30.355469 33.226562 29.605469 34.152344 C 28.328125 35.75 27.050781 37.34375 25.765625 38.933594 C 23.808594 40.84375 21.613281 41.796875 19.191406 41.796875 C 17.953125 41.796875 16.972656 41.636719 16.234375 41.316406 C 15.507812 40.996094 15.136719 40.601562 15.136719 40.128906 C 15.136719 39.707031 15.363281 39.347656 15.804688 39.0625 C 16.246094 38.78125 16.792969 38.632812 17.4375 38.632812 C 18.144531 38.632812 18.703125 38.765625 19.121094 39.019531 C 19.441406 39.21875 19.609375 39.4375 19.609375 39.660156 C 19.609375 39.988281 19.632812 40.222656 19.691406 40.355469 C 19.753906 40.492188 19.933594 40.558594 20.242188 40.558594 C 21.242188 40.558594 22.414062 39.625 23.773438 37.757812 C 25.335938 35.625 26.109375 33.386719 26.109375 31.03125 L 26.109375 9.554688 C 26.109375 9.285156 25.765625 8.976562 25.058594 8.636719 C 24.546875 8.394531 24.035156 8.148438 23.523438 7.890625 C 23.449219 7.835938 23.4375 7.746094 23.472656 7.628906 C 23.507812 7.519531 23.6875 7.460938 24.011719 7.460938 C 24.25 7.449219 24.941406 7.46875 26.109375 7.519531 C 27.277344 7.570312 28.089844 7.59375 28.554688 7.59375 C 29.484375 7.59375 30.4375 7.570312 31.40625 7.527344 C 32.371094 7.484375 32.910156 7.460938 33.027344 7.460938 C 33.445312 7.460938 33.660156 7.542969 33.660156 7.695312 C 33.660156 7.78125 33.613281 7.863281 33.515625 7.929688 Z M 47.53125 23.75 C 47.53125 29.601562 45.324219 34.863281 40.910156 39.550781 C 36.089844 44.660156 30.140625 47.210938 23.046875 47.210938 C 16.292969 47.210938 10.765625 44.878906 6.449219 40.210938 C 2.457031 35.894531 0.46875 30.738281 0.46875 24.757812 C 0.46875 19.929688 1.574219 15.699219 3.78125 12.074219 C 5.917969 8.578125 8.777344 6.082031 12.359375 4.597656 C 12.847656 4.433594 13.175781 4.347656 13.367188 4.347656 C 13.597656 4.347656 13.71875 4.421875 13.71875 4.574219 C 13.71875 4.78125 13.476562 5.042969 12.996094 5.367188 C 11.539062 6.386719 10.355469 7.449219 9.445312 8.578125 C 8.191406 10.164062 7.25 12.0625 6.613281 14.265625 C 5.863281 16.902344 5.496094 20.179688 5.496094 24.128906 C 5.496094 29.199219 7.429688 33.703125 11.28125 37.640625 C 15.273438 41.730469 19.984375 43.78125 25.445312 43.78125 C 30.46875 43.78125 34.554688 42.351562 37.683594 39.484375 C 41.117188 36.347656 42.832031 31.933594 42.832031 26.226562 C 42.832031 20.148438 40.84375 14.722656 36.855469 9.945312 C 33.015625 5.367188 28.902344 3.078125 24.492188 3.078125 C 22.707031 3.078125 21.289062 3.433594 20.242188 4.140625 C 16.742188 6.53125 14.871094 4.40625 18.0625 2.566406 C 20.132812 1.382812 22.570312 0.789062 25.363281 0.789062 C 31.980469 0.789062 37.386719 3.121094 41.59375 7.789062 C 45.554688 12.171875 47.53125 17.488281 47.53125 23.75 Z M 47.53125 23.75 "/>
</g>
</svg>
