<svg width="51" height="52" viewBox="0 0 51 52" fill="none" xmlns="http://www.w3.org/2000/svg">
<path d="M35.6113 8.58951C35.5607 8.63683 35.0536 8.88941 34.0907 9.35535C33.3175 9.72654 32.937 10.0579 32.937 10.3501V29.6392C32.937 31.0605 33.1655 32.1422 33.6087 32.8843C33.8623 33.2792 34.2298 33.6187 34.7243 33.903C34.8764 33.9423 34.9521 34.0133 34.9521 34.1083C34.9521 34.1871 34.8255 34.2503 34.5845 34.3057C34.3313 34.3609 34.0143 34.5265 33.6087 34.8031C32.9754 35.2609 32.2531 35.9953 31.4548 36.9981C30.0986 38.7272 28.7426 40.4563 27.3742 42.1776C25.2956 44.2461 22.9643 45.2804 20.3916 45.2804C19.0737 45.2804 18.0344 45.1069 17.2487 44.7594C16.4759 44.4121 16.0832 43.9858 16.0832 43.4725C16.0832 43.0144 16.3238 42.6276 16.7925 42.3196C17.2613 42.0119 17.8444 41.854 18.529 41.854C19.2767 41.854 19.872 41.996 20.3156 42.2723C20.6577 42.4856 20.8353 42.7223 20.8353 42.9671C20.8353 43.3224 20.8607 43.575 20.9238 43.7173C20.9873 43.8674 21.1774 43.9384 21.5069 43.9384C22.5713 43.9384 23.8132 42.9279 25.258 40.9063C26.9181 38.593 27.7418 36.169 27.7418 33.6187V10.3504C27.7418 10.058 27.3742 9.72664 26.6265 9.3554C26.0814 9.09472 25.5367 8.82657 24.9919 8.55002C24.9159 8.48682 24.903 8.39213 24.941 8.26594C24.979 8.14733 25.1691 8.08408 25.5112 8.08408C25.7648 8.06846 26.4996 8.09218 27.7418 8.14728C28.9837 8.20269 29.8455 8.22635 30.3396 8.22635C31.3279 8.22635 32.3418 8.20269 33.3685 8.15532C34.3948 8.10769 34.965 8.08403 35.0916 8.08403C35.5352 8.08403 35.7633 8.17094 35.7633 8.33687C35.7633 8.43156 35.7128 8.51847 35.6113 8.58951ZM50.4999 25.7296C50.4999 32.0663 48.156 37.7679 43.4686 42.8468C38.3471 48.3838 32.0248 51.1466 24.487 51.1466C17.3112 51.1466 11.4374 48.6189 6.85143 43.5639C2.61262 38.8847 0.5 33.3007 0.5 26.823C0.5 21.5913 1.67193 17.0066 4.01585 13.0801C6.28699 9.29426 9.32515 6.59059 13.1301 4.97984C13.6511 4.80365 13.9983 4.70921 14.2009 4.70921C14.4469 4.70921 14.5768 4.79179 14.5768 4.95612C14.5768 5.17964 14.3168 5.46155 13.8104 5.81449C12.2623 6.91952 11.0035 8.07161 10.0342 9.29421C8.70338 11.0106 7.70496 13.0682 7.02504 15.4547C6.22925 18.3112 5.83837 21.8619 5.83837 26.141C5.83837 31.6312 7.89321 36.51 11.9872 40.7776C16.2263 45.2095 21.2319 47.4314 27.0336 47.4314C32.372 47.4314 36.7123 45.8798 40.0399 42.7759C43.6856 39.3786 45.5084 34.5937 45.5084 28.41C45.5084 21.8264 43.3961 15.9483 39.1573 10.7755C35.0774 5.81444 30.7084 3.33382 26.0209 3.33382C24.1256 3.33382 22.6209 3.72172 21.507 4.48622C17.7882 7.07638 15.8008 4.77483 19.1922 2.78133C21.3912 1.49986 23.9807 0.853455 26.9469 0.853455C33.9779 0.853455 39.7218 3.38093 44.1923 8.43615C48.4021 13.1858 50.4999 18.9463 50.4999 25.7296Z" fill="white"/>
</svg>
